<?xml version="1.0" encoding="utf-8"?>
<!-- Generator: Adobe Illustrator 24.3.0, SVG Export Plug-In . SVG Version: 6.00 Build 0)  -->
<svg version="1.1" id="Layer_1" xmlns="http://www.w3.org/2000/svg" xmlns:xlink="http://www.w3.org/1999/xlink" x="0px" y="0px"
	 viewBox="0 0 512 512" style="enable-background:new 0 0 512 512;" xml:space="preserve">
<g>
	<path d="M509.24,159.9c-0.42-2.77-0.65-4.29-0.65-4.29l-0.65,0.15c-11.09-51.87-57.11-90.84-112.3-90.84
		c-63.44,0-114.87,51.43-114.87,114.87s51.43,114.87,114.87,114.87c5.68,0,11.17-0.87,16.6-1.67c-1.77,5.93-3.59,11.97-6.48,17.37
		c-2.92,7.85-7.45,14.68-11.99,21.54c-3.76,7.43-10.42,12.46-15.33,18.82c-5.14,6.16-12.11,10.27-17.67,15.41
		c-5.43,5.36-12.54,8.05-18.22,11.82c-5.91,3.39-11.07,7.15-16.58,8.95c-5.31,2.19-9.97,4.06-13.76,5.66
		c-7.73,3.19-12.11,5.04-12.11,5.04l12.36,49.48c0,0,5.56-1.32,15.23-3.66c4.89-1.22,10.82-2.67,17.6-4.36
		c6.9-1.3,14.28-4.79,22.51-7.98c8.1-3.64,17.5-6.08,26.25-11.92c8.77-5.56,18.89-10.22,27.84-17.67
		c8.65-7.68,19.09-14.33,26.8-24.08c8.43-9.15,16.75-18.75,23.21-29.66c7.48-10.42,12.56-21.86,17.92-33.15
		c4.84-11.32,8.75-22.88,11.94-34.1c6.06-22.53,8.75-43.92,9.8-62.22c0.87-18.32,0.35-33.55-0.72-44.6
		C510.46,168.45,509.77,163.39,509.24,159.9z M228.46,159.9c-0.42-2.77-0.65-4.29-0.65-4.29l-0.65,0.15
		c-11.09-51.87-57.11-90.84-112.3-90.84C51.43,64.93,0,116.36,0,179.8s51.43,114.87,114.87,114.87c5.68,0,11.17-0.87,16.6-1.67
		c-1.77,5.93-3.59,11.97-6.48,17.37c-2.92,7.85-7.45,14.68-11.99,21.54c-3.76,7.43-10.42,12.46-15.33,18.82
		c-5.14,6.16-12.11,10.27-17.67,15.41c-5.43,5.36-12.54,8.05-18.22,11.82c-5.91,3.39-11.07,7.15-16.58,8.95
		c-5.31,2.19-9.97,4.06-13.76,5.66c-7.7,3.14-12.09,4.99-12.09,4.99l12.36,49.48c0,0,5.56-1.32,15.23-3.66
		c4.89-1.22,10.82-2.67,17.6-4.36c6.9-1.3,14.28-4.79,22.51-7.98c8.1-3.64,17.5-6.08,26.25-11.92c8.77-5.56,18.89-10.22,27.84-17.67
		c8.65-7.68,19.09-14.33,26.8-24.08c8.43-9.15,16.75-18.75,23.21-29.66c7.48-10.42,12.56-21.86,17.92-33.15
		c4.84-11.32,8.75-22.88,11.94-34.1c6.06-22.53,8.75-43.92,9.8-62.22c0.87-18.32,0.35-33.55-0.72-44.6
		C229.68,168.45,228.98,163.39,228.46,159.9z"/>
</g>
</svg>
