<?xml version="1.0" encoding="utf-8"?>
<!-- Generator: Adobe Illustrator 24.3.0, SVG Export Plug-In . SVG Version: 6.00 Build 0)  -->
<svg version="1.1" id="Layer_1" xmlns="http://www.w3.org/2000/svg" xmlns:xlink="http://www.w3.org/1999/xlink" x="0px" y="0px"
	 viewBox="0 0 512 512" style="enable-background:new 0 0 512 512;" xml:space="preserve">
<g>
	<path d="M116.36,217.34c-5.68,0-11.14,0.87-16.58,1.65c1.74-5.91,3.56-11.94,6.48-17.35c2.92-7.85,7.45-14.68,11.96-21.54
		c3.79-7.43,10.44-12.46,15.35-18.82c5.11-6.18,12.11-10.29,17.65-15.4c5.43-5.38,12.56-8.05,18.22-11.84
		c5.93-3.39,11.09-7.13,16.6-8.92c5.31-2.19,9.95-4.09,13.76-5.66c7.7-3.19,12.09-5.04,12.09-5.04l-12.36-49.48
		c0,0-5.58,1.35-15.26,3.69c-4.86,1.22-10.82,2.64-17.57,4.36c-6.93,1.27-14.31,4.79-22.51,7.98c-8.13,3.61-17.52,6.06-26.25,11.89
		c-8.77,5.56-18.92,10.2-27.84,17.65c-8.65,7.7-19.09,14.36-26.8,24.13c-8.43,9.15-16.75,18.74-23.21,29.66
		c-7.48,10.42-12.56,21.84-17.92,33.15c-4.86,11.32-8.75,22.88-11.94,34.1c-6.06,22.51-8.77,43.9-9.82,62.22
		c-0.85,18.32-0.35,33.55,0.72,44.59c0.37,5.18,1.1,10.24,1.62,13.73c0.42,2.79,0.62,4.29,0.62,4.29l0.67-0.15
		c11.09,51.87,57.13,90.83,112.29,90.83c63.44,0,114.86-51.45,114.86-114.86C231.23,268.76,179.8,217.34,116.36,217.34z
		 M397.14,217.34c-5.68,0-11.14,0.87-16.58,1.65c1.74-5.91,3.56-11.94,6.48-17.35c2.92-7.85,7.45-14.68,11.96-21.54
		c3.79-7.43,10.44-12.46,15.35-18.82c5.11-6.18,12.11-10.29,17.65-15.4c5.43-5.38,12.56-8.05,18.22-11.84
		c5.93-3.39,11.09-7.13,16.6-8.92c5.31-2.19,9.95-4.09,13.76-5.66c7.7-3.19,12.09-5.04,12.09-5.04l-12.36-49.48
		c0,0-5.58,1.35-15.26,3.69c-4.86,1.22-10.82,2.64-17.57,4.36c-6.93,1.27-14.31,4.79-22.51,7.98c-8.1,3.64-17.52,6.06-26.25,11.91
		c-8.77,5.56-18.92,10.2-27.84,17.65c-8.65,7.7-19.09,14.36-26.8,24.1c-8.43,9.15-16.75,18.74-23.21,29.66
		c-7.48,10.42-12.56,21.84-17.92,33.15c-4.86,11.32-8.75,22.88-11.94,34.1c-6.06,22.51-8.77,43.9-9.82,62.22
		c-0.85,18.32-0.35,33.55,0.72,44.59c0.37,5.18,1.1,10.24,1.62,13.73c0.42,2.79,0.62,4.29,0.62,4.29l0.67-0.15
		c11.09,51.87,57.13,90.83,112.3,90.83c63.44,0,114.86-51.45,114.86-114.86C512,268.76,460.58,217.34,397.14,217.34z"/>
</g>
</svg>
